<svg viewBox="0 0 72 72" xmlns="http://www.w3.org/2000/svg"><g fill="none" stroke="#000" stroke-miterlimit="10" stroke-width="2"><circle cx="51.9688" cy="15.0938" r="3"/><g stroke-linecap="round" stroke-linejoin="round"><path d="m42 33-8.084-2.4258c-1.0537-.3154-2.4922.1172-3.1963.9619l-7.4394 8.9278c-.7041.8447-.8301 1.9863-.2803 2.5361s1.6367.3633 2.4141-.4141l6.1718-6.1718c.7774-.7774 2.2012-.9766 3.1621-.4424l5.504 3.0566c.9609.5342 2.6484.9717 3.748.9717h1c1.0996 0 2.6182-.6533 3.375-1.4531l.457-.4834c.7569-.7998 1.5537-2.2656 1.7715-3.2588.2178-.9922.3965-1.8047.3965-1.8047"/><path d="m49.1348 38.1406-1.7803 9.8907c-.1953 1.083-.1357 2.8417.1309 3.9091l2.0292 8.1192c.2667 1.0674-.1894 2.165-1.0146 2.4404s-1.8232-.3398-2.2178-1.3662l-3.5644-9.2676c-.3946-1.0264-.7178-2.7666-.7178-3.8662v-7"/><path d="m51 33 1.8506-6.1685c.6318-2.1074-.2002-4.2817-1.8506-4.8315s-4.7861-1.2231-6.9687-1.4961l-.0625-.0078c-2.1827-.273-5.544-.9248-7.4688-1.4492s-3.5-.9531-3.5-.9531"/><path d="m16 56 7-11-2-4 6-13 5-3 2-3"/><path d="m43 30 8 3"/><path d="m52.2646 33.5723 1.8975.6328-1.2646 3.7949-1.8975-.6328"/><path d="m37 16 2-8"/><path d="m46 25-1 2"/></g></g></svg>