<svg viewBox="0 0 72 72" xmlns="http://www.w3.org/2000/svg"><g fill="none" stroke="#000" stroke-linecap="round" stroke-linejoin="round" stroke-miterlimit="10"><g stroke-width="2"><path d="m68 47.8958v20.0625h-64v-40.125c0-14.6855 9.579-23.8333 23.8364-23.8364"/><path d="m68 37.5064c-3.6467 1.9165-7.3437 3.1936-11.6 3.4936-30.15 2.125-41.4-21.875-28.5636-37.0031"/><path d="m68 47.8958c-4.8333 2.6875-11.25 3.3715-19.0158 2.9878-34.9931-3.2582-37.6029-36.4995-21.1478-46.8867"/></g><path d="m44.857 9.7223c1.6744 1.9066 1.5785 4.7217-.2101 6.2925s-4.5959 1.2984-6.2703-.6082c0 0-2.0702-2.2858-3.0178-8.8759 0 0-.2509-1.3199.9788-.9606 6.4126 1.7907 8.5194 4.1522 8.5194 4.1522" stroke-width="1.9"/><path d="m63.875 63.2775c-3.4238 0-3.4238-2.055-6.8475-2.055-3.4219 0-3.4219 2.055-6.8438 2.055-3.4249 0-3.4249-2.055-6.8498-2.055-3.4272 0-3.4272 2.055-6.8545 2.055s-3.4272-2.055-6.8545-2.055" stroke-width="2"/></g></svg>